<?xml version="1.0" standalone="no"?>
<!DOCTYPE svg PUBLIC "-//W3C//DTD SVG 20010904//EN"
 "http://www.w3.org/TR/2001/REC-SVG-20010904/DTD/svg10.dtd">
<svg version="1.0" xmlns="http://www.w3.org/2000/svg"
 width="3081.000000pt" height="1251.000000pt" viewBox="0 0 3081.000000 1251.000000"
 preserveAspectRatio="xMidYMid meet">

<g transform="translate(0.000000,1251.000000) scale(0.100000,-0.100000)"
fill="#000000" stroke="none">
<path d="M14045 8329 c-179 -17 -387 -68 -524 -130 -154 -70 -304 -196 -395
-333 -178 -269 -206 -739 -61 -1045 99 -208 280 -371 570 -511 66 -32 350
-154 630 -270 281 -117 537 -226 570 -242 260 -130 359 -276 358 -528 -1 -216
-92 -381 -259 -472 -165 -89 -450 -131 -728 -108 -331 28 -535 127 -629 307
-47 90 -66 166 -74 291 -5 80 -10 109 -25 128 l-20 24 -255 -2 -256 -3 -21
-28 c-19 -27 -21 -40 -20 -190 1 -139 5 -176 26 -257 47 -176 123 -312 245
-434 186 -186 444 -293 813 -337 133 -16 523 -16 660 0 391 45 659 152 843
338 88 90 130 149 183 259 79 165 110 342 101 578 -13 354 -125 572 -392 761
-123 88 -273 159 -775 370 -708 298 -800 345 -921 472 -94 98 -129 190 -129
338 0 160 41 265 141 361 136 128 402 190 718 164 366 -30 605 -169 680 -398
16 -48 21 -88 21 -175 0 -82 4 -119 14 -133 13 -18 30 -19 255 -22 165 -2 247
1 262 8 40 22 52 73 52 230 0 164 -19 269 -73 386 -178 394 -671 619 -1345
613 -82 -1 -190 -5 -240 -10z"/>
<path d="M24905 8329 c-362 -35 -640 -150 -823 -343 -154 -163 -233 -364 -248
-637 -19 -326 78 -597 283 -789 167 -158 284 -218 983 -510 305 -127 590 -250
634 -273 98 -53 193 -130 234 -192 58 -88 75 -147 80 -285 5 -138 -9 -213 -55
-304 -32 -63 -121 -153 -193 -193 -163 -93 -450 -137 -734 -113 -265 22 -430
82 -547 199 -102 103 -146 214 -156 399 -5 80 -10 108 -25 128 l-19 24 -253 0
-253 0 -24 -26 c-22 -23 -24 -35 -28 -139 -13 -421 178 -758 535 -938 426
-215 1317 -219 1770 -7 270 126 463 353 533 625 45 178 52 452 16 620 -64 300
-244 506 -594 681 -59 29 -317 141 -576 249 -672 282 -778 336 -896 461 -93
99 -132 200 -132 344 0 149 45 261 142 353 103 98 240 148 465 167 425 37 784
-93 903 -325 40 -77 53 -140 53 -256 0 -154 -19 -143 261 -147 129 -2 244 -1
256 3 37 9 53 47 64 146 12 123 -3 275 -41 391 -123 383 -528 634 -1110 687
-132 13 -374 12 -505 0z"/>
<path d="M4179 8249 c-9 -18 79 -338 552 -1993 309 -1084 569 -1979 577 -1988
14 -17 44 -18 357 -18 313 0 343 1 357 18 8 9 117 359 242 777 300 1009 435
1457 440 1462 5 5 16 -33 91 -312 41 -152 486 -1712 541 -1897 14 -48 13 -48
388 -48 324 0 354 1 368 18 13 15 1084 3869 1096 3945 9 56 5 57 -299 57 -239
0 -280 -2 -293 -16 -9 -8 -16 -17 -16 -20 0 -2 -151 -570 -337 -1262 -347
-1297 -408 -1531 -489 -1885 -26 -114 -50 -204 -54 -200 -4 4 -35 121 -70 258
-82 326 -815 3006 -829 3034 -11 21 -17 21 -290 21 -238 0 -280 -2 -291 -15
-11 -13 7 -84 102 -416 l116 -400 -220 -717 c-235 -769 -485 -1596 -513 -1702
-10 -36 -21 -69 -25 -73 -4 -5 -15 27 -25 70 -9 43 -34 148 -56 233 -21 85
-55 223 -74 305 -20 83 -51 202 -70 265 -19 63 -183 650 -365 1304 -181 654
-335 1195 -341 1202 -9 11 -65 14 -285 14 -268 0 -274 0 -285 -21z"/>
<path d="M10487 8258 c-18 -14 -1377 -3924 -1377 -3962 0 -45 9 -46 302 -46
l279 0 16 28 c8 15 77 218 152 452 l137 425 846 3 846 2 16 -47 c151 -475 271
-832 284 -845 14 -16 42 -18 309 -18 l293 0 11 23 c12 26 73 -155 -845 2471
-338 966 -531 1505 -542 1513 -25 18 -702 19 -727 1z m453 -809 c132 -397 580
-1774 580 -1782 0 -4 -306 -7 -681 -7 -541 0 -680 3 -676 13 2 6 84 260 182
562 97 303 237 732 310 955 73 223 143 440 155 483 16 52 26 74 31 64 5 -7 49
-137 99 -288z"/>
<path d="M16616 8248 c-14 -20 -16 -225 -16 -1988 0 -1763 2 -1968 16 -1988
15 -22 18 -22 279 -22 261 0 264 0 279 22 14 20 16 122 16 905 l0 883 948 -2
947 -3 3 -889 c1 -643 5 -893 13 -903 10 -11 64 -13 283 -11 l270 3 13 25 c19
37 19 3923 0 3960 l-13 25 -270 3 c-219 2 -273 0 -283 -11 -8 -10 -12 -246
-13 -848 l-3 -834 -947 -3 -948 -2 0 828 c0 733 -2 830 -16 850 -15 22 -18 22
-279 22 -261 0 -264 0 -279 -22z"/>
<path d="M20692 8258 c-17 -17 -17 -3979 0 -3996 9 -9 282 -12 1165 -12 l1153
0 15 24 c14 21 16 58 13 250 -2 168 -6 228 -16 238 -10 10 -187 14 -888 16
l-874 2 2 628 3 627 800 2 c738 3 801 4 813 20 19 26 17 442 -2 469 -14 18
-36 19 -815 22 l-801 2 0 595 0 595 876 2 c854 3 876 3 890 22 22 30 20 452
-2 484 l-15 22 -1153 0 c-883 0 -1155 -3 -1164 -12z"/>
</g>
</svg>
